G75*
%MOIN*%
%OFA0B0*%
%FSLAX25Y25*%
%IPPOS*%
%LPD*%
%AMOC8*
5,1,8,0,0,1.08239X$1,22.5*
%
%ADD10C,0.00400*%
%ADD11R,0.01713X0.05906*%
%ADD12R,0.05118X0.06299*%
%ADD13R,0.07874X0.09449*%
%ADD14R,0.01969X0.09087*%
%ADD15C,0.00000*%
D10*
X0009764Y0006829D02*
X0094741Y0006829D01*
X0098074Y0010164D01*
X0098074Y0070790D01*
X0092751Y0076113D01*
X0080307Y0076113D01*
X0077586Y0078834D01*
X0077586Y0109504D01*
X0069708Y0117382D01*
X0034797Y0117382D01*
X0026920Y0109502D01*
X0026920Y0078832D01*
X0024198Y0076111D01*
X0011754Y0076111D01*
X0006431Y0070788D01*
X0006431Y0010162D01*
X0009764Y0006829D01*
D11*
X0044096Y0039366D03*
X0046592Y0039366D03*
X0049096Y0039366D03*
X0051592Y0039366D03*
X0054096Y0039366D03*
X0056592Y0039366D03*
X0059096Y0039366D03*
X0061592Y0039366D03*
X0061592Y0062472D03*
X0059096Y0062472D03*
X0056592Y0062472D03*
X0054096Y0062472D03*
X0051592Y0062472D03*
X0049096Y0062472D03*
X0046592Y0062472D03*
X0044096Y0062472D03*
D12*
X0025167Y0055275D03*
X0017687Y0055275D03*
X0017687Y0040745D03*
X0025167Y0040745D03*
X0079243Y0045435D03*
X0086723Y0045435D03*
X0086723Y0032099D03*
X0079243Y0032099D03*
X0079243Y0059356D03*
X0086723Y0059356D03*
D13*
X0069575Y0085476D03*
X0069575Y0107129D03*
X0034930Y0107129D03*
X0034930Y0085476D03*
D14*
X0045953Y0083255D03*
X0049103Y0083255D03*
X0052253Y0083255D03*
X0055402Y0083255D03*
X0058552Y0083255D03*
D15*
X0058945Y0095318D02*
X0058947Y0095406D01*
X0058953Y0095494D01*
X0058963Y0095582D01*
X0058977Y0095670D01*
X0058994Y0095756D01*
X0059016Y0095842D01*
X0059041Y0095926D01*
X0059071Y0096010D01*
X0059103Y0096092D01*
X0059140Y0096172D01*
X0059180Y0096251D01*
X0059224Y0096328D01*
X0059271Y0096403D01*
X0059321Y0096475D01*
X0059375Y0096546D01*
X0059431Y0096613D01*
X0059491Y0096679D01*
X0059553Y0096741D01*
X0059619Y0096801D01*
X0059686Y0096857D01*
X0059757Y0096911D01*
X0059829Y0096961D01*
X0059904Y0097008D01*
X0059981Y0097052D01*
X0060060Y0097092D01*
X0060140Y0097129D01*
X0060222Y0097161D01*
X0060306Y0097191D01*
X0060390Y0097216D01*
X0060476Y0097238D01*
X0060562Y0097255D01*
X0060650Y0097269D01*
X0060738Y0097279D01*
X0060826Y0097285D01*
X0060914Y0097287D01*
X0061002Y0097285D01*
X0061090Y0097279D01*
X0061178Y0097269D01*
X0061266Y0097255D01*
X0061352Y0097238D01*
X0061438Y0097216D01*
X0061522Y0097191D01*
X0061606Y0097161D01*
X0061688Y0097129D01*
X0061768Y0097092D01*
X0061847Y0097052D01*
X0061924Y0097008D01*
X0061999Y0096961D01*
X0062071Y0096911D01*
X0062142Y0096857D01*
X0062209Y0096801D01*
X0062275Y0096741D01*
X0062337Y0096679D01*
X0062397Y0096613D01*
X0062453Y0096546D01*
X0062507Y0096475D01*
X0062557Y0096403D01*
X0062604Y0096328D01*
X0062648Y0096251D01*
X0062688Y0096172D01*
X0062725Y0096092D01*
X0062757Y0096010D01*
X0062787Y0095926D01*
X0062812Y0095842D01*
X0062834Y0095756D01*
X0062851Y0095670D01*
X0062865Y0095582D01*
X0062875Y0095494D01*
X0062881Y0095406D01*
X0062883Y0095318D01*
X0062881Y0095230D01*
X0062875Y0095142D01*
X0062865Y0095054D01*
X0062851Y0094966D01*
X0062834Y0094880D01*
X0062812Y0094794D01*
X0062787Y0094710D01*
X0062757Y0094626D01*
X0062725Y0094544D01*
X0062688Y0094464D01*
X0062648Y0094385D01*
X0062604Y0094308D01*
X0062557Y0094233D01*
X0062507Y0094161D01*
X0062453Y0094090D01*
X0062397Y0094023D01*
X0062337Y0093957D01*
X0062275Y0093895D01*
X0062209Y0093835D01*
X0062142Y0093779D01*
X0062071Y0093725D01*
X0061999Y0093675D01*
X0061924Y0093628D01*
X0061847Y0093584D01*
X0061768Y0093544D01*
X0061688Y0093507D01*
X0061606Y0093475D01*
X0061522Y0093445D01*
X0061438Y0093420D01*
X0061352Y0093398D01*
X0061266Y0093381D01*
X0061178Y0093367D01*
X0061090Y0093357D01*
X0061002Y0093351D01*
X0060914Y0093349D01*
X0060826Y0093351D01*
X0060738Y0093357D01*
X0060650Y0093367D01*
X0060562Y0093381D01*
X0060476Y0093398D01*
X0060390Y0093420D01*
X0060306Y0093445D01*
X0060222Y0093475D01*
X0060140Y0093507D01*
X0060060Y0093544D01*
X0059981Y0093584D01*
X0059904Y0093628D01*
X0059829Y0093675D01*
X0059757Y0093725D01*
X0059686Y0093779D01*
X0059619Y0093835D01*
X0059553Y0093895D01*
X0059491Y0093957D01*
X0059431Y0094023D01*
X0059375Y0094090D01*
X0059321Y0094161D01*
X0059271Y0094233D01*
X0059224Y0094308D01*
X0059180Y0094385D01*
X0059140Y0094464D01*
X0059103Y0094544D01*
X0059071Y0094626D01*
X0059041Y0094710D01*
X0059016Y0094794D01*
X0058994Y0094880D01*
X0058977Y0094966D01*
X0058963Y0095054D01*
X0058953Y0095142D01*
X0058947Y0095230D01*
X0058945Y0095318D01*
X0041622Y0095318D02*
X0041624Y0095406D01*
X0041630Y0095494D01*
X0041640Y0095582D01*
X0041654Y0095670D01*
X0041671Y0095756D01*
X0041693Y0095842D01*
X0041718Y0095926D01*
X0041748Y0096010D01*
X0041780Y0096092D01*
X0041817Y0096172D01*
X0041857Y0096251D01*
X0041901Y0096328D01*
X0041948Y0096403D01*
X0041998Y0096475D01*
X0042052Y0096546D01*
X0042108Y0096613D01*
X0042168Y0096679D01*
X0042230Y0096741D01*
X0042296Y0096801D01*
X0042363Y0096857D01*
X0042434Y0096911D01*
X0042506Y0096961D01*
X0042581Y0097008D01*
X0042658Y0097052D01*
X0042737Y0097092D01*
X0042817Y0097129D01*
X0042899Y0097161D01*
X0042983Y0097191D01*
X0043067Y0097216D01*
X0043153Y0097238D01*
X0043239Y0097255D01*
X0043327Y0097269D01*
X0043415Y0097279D01*
X0043503Y0097285D01*
X0043591Y0097287D01*
X0043679Y0097285D01*
X0043767Y0097279D01*
X0043855Y0097269D01*
X0043943Y0097255D01*
X0044029Y0097238D01*
X0044115Y0097216D01*
X0044199Y0097191D01*
X0044283Y0097161D01*
X0044365Y0097129D01*
X0044445Y0097092D01*
X0044524Y0097052D01*
X0044601Y0097008D01*
X0044676Y0096961D01*
X0044748Y0096911D01*
X0044819Y0096857D01*
X0044886Y0096801D01*
X0044952Y0096741D01*
X0045014Y0096679D01*
X0045074Y0096613D01*
X0045130Y0096546D01*
X0045184Y0096475D01*
X0045234Y0096403D01*
X0045281Y0096328D01*
X0045325Y0096251D01*
X0045365Y0096172D01*
X0045402Y0096092D01*
X0045434Y0096010D01*
X0045464Y0095926D01*
X0045489Y0095842D01*
X0045511Y0095756D01*
X0045528Y0095670D01*
X0045542Y0095582D01*
X0045552Y0095494D01*
X0045558Y0095406D01*
X0045560Y0095318D01*
X0045558Y0095230D01*
X0045552Y0095142D01*
X0045542Y0095054D01*
X0045528Y0094966D01*
X0045511Y0094880D01*
X0045489Y0094794D01*
X0045464Y0094710D01*
X0045434Y0094626D01*
X0045402Y0094544D01*
X0045365Y0094464D01*
X0045325Y0094385D01*
X0045281Y0094308D01*
X0045234Y0094233D01*
X0045184Y0094161D01*
X0045130Y0094090D01*
X0045074Y0094023D01*
X0045014Y0093957D01*
X0044952Y0093895D01*
X0044886Y0093835D01*
X0044819Y0093779D01*
X0044748Y0093725D01*
X0044676Y0093675D01*
X0044601Y0093628D01*
X0044524Y0093584D01*
X0044445Y0093544D01*
X0044365Y0093507D01*
X0044283Y0093475D01*
X0044199Y0093445D01*
X0044115Y0093420D01*
X0044029Y0093398D01*
X0043943Y0093381D01*
X0043855Y0093367D01*
X0043767Y0093357D01*
X0043679Y0093351D01*
X0043591Y0093349D01*
X0043503Y0093351D01*
X0043415Y0093357D01*
X0043327Y0093367D01*
X0043239Y0093381D01*
X0043153Y0093398D01*
X0043067Y0093420D01*
X0042983Y0093445D01*
X0042899Y0093475D01*
X0042817Y0093507D01*
X0042737Y0093544D01*
X0042658Y0093584D01*
X0042581Y0093628D01*
X0042506Y0093675D01*
X0042434Y0093725D01*
X0042363Y0093779D01*
X0042296Y0093835D01*
X0042230Y0093895D01*
X0042168Y0093957D01*
X0042108Y0094023D01*
X0042052Y0094090D01*
X0041998Y0094161D01*
X0041948Y0094233D01*
X0041901Y0094308D01*
X0041857Y0094385D01*
X0041817Y0094464D01*
X0041780Y0094544D01*
X0041748Y0094626D01*
X0041718Y0094710D01*
X0041693Y0094794D01*
X0041671Y0094880D01*
X0041654Y0094966D01*
X0041640Y0095054D01*
X0041630Y0095142D01*
X0041624Y0095230D01*
X0041622Y0095318D01*
M02*
