G75*
%MOIN*%
%OFA0B0*%
%FSLAX25Y25*%
%IPPOS*%
%LPD*%
%AMOC8*
5,1,8,0,0,1.08239X$1,22.5*
%
%ADD10C,0.00400*%
%ADD11C,0.07874*%
%ADD12R,0.01713X0.05906*%
%ADD13R,0.05118X0.06299*%
%ADD14R,0.07874X0.09449*%
%ADD15R,0.01969X0.09087*%
%ADD16C,0.00000*%
%ADD17C,0.03569*%
%ADD18C,0.01600*%
%ADD19C,0.02978*%
%ADD20C,0.01200*%
D10*
X0009764Y0006829D02*
X0094741Y0006829D01*
X0098074Y0010164D01*
X0098074Y0070790D01*
X0092751Y0076113D01*
X0080307Y0076113D01*
X0077586Y0078834D01*
X0077586Y0109504D01*
X0069708Y0117382D01*
X0034797Y0117382D01*
X0026920Y0109502D01*
X0026920Y0078832D01*
X0024198Y0076111D01*
X0011754Y0076111D01*
X0006431Y0070788D01*
X0006431Y0010162D01*
X0009764Y0006829D01*
D11*
X0012224Y0013000D03*
X0021673Y0013000D03*
X0031909Y0013000D03*
X0042145Y0013000D03*
X0052381Y0013000D03*
X0062030Y0013000D03*
X0072066Y0013000D03*
X0082103Y0013000D03*
X0092206Y0013000D03*
D12*
X0061592Y0039366D03*
X0059096Y0039366D03*
X0056592Y0039366D03*
X0054096Y0039366D03*
X0051592Y0039366D03*
X0049096Y0039366D03*
X0046592Y0039366D03*
X0044096Y0039366D03*
X0044096Y0062472D03*
X0046592Y0062472D03*
X0049096Y0062472D03*
X0051592Y0062472D03*
X0054096Y0062472D03*
X0056592Y0062472D03*
X0059096Y0062472D03*
X0061592Y0062472D03*
D13*
X0079243Y0059356D03*
X0086723Y0059356D03*
X0086723Y0045435D03*
X0079243Y0045435D03*
X0079243Y0032099D03*
X0086723Y0032099D03*
X0025167Y0040745D03*
X0017687Y0040745D03*
X0017687Y0055275D03*
X0025167Y0055275D03*
D14*
X0034930Y0085476D03*
X0034930Y0107129D03*
X0069575Y0107129D03*
X0069575Y0085476D03*
D15*
X0058552Y0083255D03*
X0055402Y0083255D03*
X0052253Y0083255D03*
X0049103Y0083255D03*
X0045953Y0083255D03*
D16*
X0041622Y0095318D02*
X0041624Y0095406D01*
X0041630Y0095494D01*
X0041640Y0095582D01*
X0041654Y0095670D01*
X0041671Y0095756D01*
X0041693Y0095842D01*
X0041718Y0095926D01*
X0041748Y0096010D01*
X0041780Y0096092D01*
X0041817Y0096172D01*
X0041857Y0096251D01*
X0041901Y0096328D01*
X0041948Y0096403D01*
X0041998Y0096475D01*
X0042052Y0096546D01*
X0042108Y0096613D01*
X0042168Y0096679D01*
X0042230Y0096741D01*
X0042296Y0096801D01*
X0042363Y0096857D01*
X0042434Y0096911D01*
X0042506Y0096961D01*
X0042581Y0097008D01*
X0042658Y0097052D01*
X0042737Y0097092D01*
X0042817Y0097129D01*
X0042899Y0097161D01*
X0042983Y0097191D01*
X0043067Y0097216D01*
X0043153Y0097238D01*
X0043239Y0097255D01*
X0043327Y0097269D01*
X0043415Y0097279D01*
X0043503Y0097285D01*
X0043591Y0097287D01*
X0043679Y0097285D01*
X0043767Y0097279D01*
X0043855Y0097269D01*
X0043943Y0097255D01*
X0044029Y0097238D01*
X0044115Y0097216D01*
X0044199Y0097191D01*
X0044283Y0097161D01*
X0044365Y0097129D01*
X0044445Y0097092D01*
X0044524Y0097052D01*
X0044601Y0097008D01*
X0044676Y0096961D01*
X0044748Y0096911D01*
X0044819Y0096857D01*
X0044886Y0096801D01*
X0044952Y0096741D01*
X0045014Y0096679D01*
X0045074Y0096613D01*
X0045130Y0096546D01*
X0045184Y0096475D01*
X0045234Y0096403D01*
X0045281Y0096328D01*
X0045325Y0096251D01*
X0045365Y0096172D01*
X0045402Y0096092D01*
X0045434Y0096010D01*
X0045464Y0095926D01*
X0045489Y0095842D01*
X0045511Y0095756D01*
X0045528Y0095670D01*
X0045542Y0095582D01*
X0045552Y0095494D01*
X0045558Y0095406D01*
X0045560Y0095318D01*
X0045558Y0095230D01*
X0045552Y0095142D01*
X0045542Y0095054D01*
X0045528Y0094966D01*
X0045511Y0094880D01*
X0045489Y0094794D01*
X0045464Y0094710D01*
X0045434Y0094626D01*
X0045402Y0094544D01*
X0045365Y0094464D01*
X0045325Y0094385D01*
X0045281Y0094308D01*
X0045234Y0094233D01*
X0045184Y0094161D01*
X0045130Y0094090D01*
X0045074Y0094023D01*
X0045014Y0093957D01*
X0044952Y0093895D01*
X0044886Y0093835D01*
X0044819Y0093779D01*
X0044748Y0093725D01*
X0044676Y0093675D01*
X0044601Y0093628D01*
X0044524Y0093584D01*
X0044445Y0093544D01*
X0044365Y0093507D01*
X0044283Y0093475D01*
X0044199Y0093445D01*
X0044115Y0093420D01*
X0044029Y0093398D01*
X0043943Y0093381D01*
X0043855Y0093367D01*
X0043767Y0093357D01*
X0043679Y0093351D01*
X0043591Y0093349D01*
X0043503Y0093351D01*
X0043415Y0093357D01*
X0043327Y0093367D01*
X0043239Y0093381D01*
X0043153Y0093398D01*
X0043067Y0093420D01*
X0042983Y0093445D01*
X0042899Y0093475D01*
X0042817Y0093507D01*
X0042737Y0093544D01*
X0042658Y0093584D01*
X0042581Y0093628D01*
X0042506Y0093675D01*
X0042434Y0093725D01*
X0042363Y0093779D01*
X0042296Y0093835D01*
X0042230Y0093895D01*
X0042168Y0093957D01*
X0042108Y0094023D01*
X0042052Y0094090D01*
X0041998Y0094161D01*
X0041948Y0094233D01*
X0041901Y0094308D01*
X0041857Y0094385D01*
X0041817Y0094464D01*
X0041780Y0094544D01*
X0041748Y0094626D01*
X0041718Y0094710D01*
X0041693Y0094794D01*
X0041671Y0094880D01*
X0041654Y0094966D01*
X0041640Y0095054D01*
X0041630Y0095142D01*
X0041624Y0095230D01*
X0041622Y0095318D01*
X0058945Y0095318D02*
X0058947Y0095406D01*
X0058953Y0095494D01*
X0058963Y0095582D01*
X0058977Y0095670D01*
X0058994Y0095756D01*
X0059016Y0095842D01*
X0059041Y0095926D01*
X0059071Y0096010D01*
X0059103Y0096092D01*
X0059140Y0096172D01*
X0059180Y0096251D01*
X0059224Y0096328D01*
X0059271Y0096403D01*
X0059321Y0096475D01*
X0059375Y0096546D01*
X0059431Y0096613D01*
X0059491Y0096679D01*
X0059553Y0096741D01*
X0059619Y0096801D01*
X0059686Y0096857D01*
X0059757Y0096911D01*
X0059829Y0096961D01*
X0059904Y0097008D01*
X0059981Y0097052D01*
X0060060Y0097092D01*
X0060140Y0097129D01*
X0060222Y0097161D01*
X0060306Y0097191D01*
X0060390Y0097216D01*
X0060476Y0097238D01*
X0060562Y0097255D01*
X0060650Y0097269D01*
X0060738Y0097279D01*
X0060826Y0097285D01*
X0060914Y0097287D01*
X0061002Y0097285D01*
X0061090Y0097279D01*
X0061178Y0097269D01*
X0061266Y0097255D01*
X0061352Y0097238D01*
X0061438Y0097216D01*
X0061522Y0097191D01*
X0061606Y0097161D01*
X0061688Y0097129D01*
X0061768Y0097092D01*
X0061847Y0097052D01*
X0061924Y0097008D01*
X0061999Y0096961D01*
X0062071Y0096911D01*
X0062142Y0096857D01*
X0062209Y0096801D01*
X0062275Y0096741D01*
X0062337Y0096679D01*
X0062397Y0096613D01*
X0062453Y0096546D01*
X0062507Y0096475D01*
X0062557Y0096403D01*
X0062604Y0096328D01*
X0062648Y0096251D01*
X0062688Y0096172D01*
X0062725Y0096092D01*
X0062757Y0096010D01*
X0062787Y0095926D01*
X0062812Y0095842D01*
X0062834Y0095756D01*
X0062851Y0095670D01*
X0062865Y0095582D01*
X0062875Y0095494D01*
X0062881Y0095406D01*
X0062883Y0095318D01*
X0062881Y0095230D01*
X0062875Y0095142D01*
X0062865Y0095054D01*
X0062851Y0094966D01*
X0062834Y0094880D01*
X0062812Y0094794D01*
X0062787Y0094710D01*
X0062757Y0094626D01*
X0062725Y0094544D01*
X0062688Y0094464D01*
X0062648Y0094385D01*
X0062604Y0094308D01*
X0062557Y0094233D01*
X0062507Y0094161D01*
X0062453Y0094090D01*
X0062397Y0094023D01*
X0062337Y0093957D01*
X0062275Y0093895D01*
X0062209Y0093835D01*
X0062142Y0093779D01*
X0062071Y0093725D01*
X0061999Y0093675D01*
X0061924Y0093628D01*
X0061847Y0093584D01*
X0061768Y0093544D01*
X0061688Y0093507D01*
X0061606Y0093475D01*
X0061522Y0093445D01*
X0061438Y0093420D01*
X0061352Y0093398D01*
X0061266Y0093381D01*
X0061178Y0093367D01*
X0061090Y0093357D01*
X0061002Y0093351D01*
X0060914Y0093349D01*
X0060826Y0093351D01*
X0060738Y0093357D01*
X0060650Y0093367D01*
X0060562Y0093381D01*
X0060476Y0093398D01*
X0060390Y0093420D01*
X0060306Y0093445D01*
X0060222Y0093475D01*
X0060140Y0093507D01*
X0060060Y0093544D01*
X0059981Y0093584D01*
X0059904Y0093628D01*
X0059829Y0093675D01*
X0059757Y0093725D01*
X0059686Y0093779D01*
X0059619Y0093835D01*
X0059553Y0093895D01*
X0059491Y0093957D01*
X0059431Y0094023D01*
X0059375Y0094090D01*
X0059321Y0094161D01*
X0059271Y0094233D01*
X0059224Y0094308D01*
X0059180Y0094385D01*
X0059140Y0094464D01*
X0059103Y0094544D01*
X0059071Y0094626D01*
X0059041Y0094710D01*
X0059016Y0094794D01*
X0058994Y0094880D01*
X0058977Y0094966D01*
X0058963Y0095054D01*
X0058953Y0095142D01*
X0058947Y0095230D01*
X0058945Y0095318D01*
D17*
X0061792Y0012826D03*
D18*
X0002587Y0005421D02*
X0002795Y0121391D01*
X0102007Y0121391D01*
X0101800Y0016444D01*
X0101800Y0005421D01*
X0002587Y0005421D01*
X0002590Y0006781D02*
X0101800Y0006781D01*
X0101800Y0008379D02*
X0095416Y0008379D01*
X0095342Y0008306D02*
X0096900Y0009864D01*
X0097743Y0011899D01*
X0097743Y0014101D01*
X0096900Y0016136D01*
X0095342Y0017694D01*
X0094687Y0017965D01*
X0094687Y0021049D01*
X0094322Y0021931D01*
X0093647Y0022606D01*
X0089211Y0027042D01*
X0088468Y0027350D01*
X0089945Y0027350D01*
X0090882Y0028287D01*
X0090882Y0035912D01*
X0089945Y0036849D01*
X0086612Y0036849D01*
X0088142Y0038379D01*
X0088817Y0039054D01*
X0089182Y0039936D01*
X0089182Y0040685D01*
X0089945Y0040685D01*
X0090882Y0041622D01*
X0090882Y0049247D01*
X0089945Y0050184D01*
X0089265Y0050184D01*
X0089265Y0054606D01*
X0089945Y0054606D01*
X0090882Y0055544D01*
X0090882Y0063168D01*
X0089945Y0064105D01*
X0089261Y0064105D01*
X0088900Y0064977D01*
X0086084Y0067793D01*
X0085409Y0068468D01*
X0084527Y0068833D01*
X0062978Y0068833D01*
X0062096Y0068468D01*
X0061479Y0067852D01*
X0061479Y0071186D01*
X0061114Y0072068D01*
X0060969Y0072213D01*
X0060969Y0077882D01*
X0061136Y0078049D01*
X0061136Y0088462D01*
X0060199Y0089399D01*
X0057860Y0089399D01*
X0057863Y0089600D01*
X0057855Y0089621D01*
X0057855Y0089644D01*
X0057681Y0090065D01*
X0057514Y0090489D01*
X0057498Y0090505D01*
X0057490Y0090526D01*
X0057167Y0090848D01*
X0054940Y0093158D01*
X0054931Y0093179D01*
X0054609Y0093502D01*
X0054293Y0093829D01*
X0054272Y0093839D01*
X0054256Y0093855D01*
X0053835Y0094029D01*
X0053418Y0094211D01*
X0053395Y0094211D01*
X0053374Y0094220D01*
X0052918Y0094220D01*
X0052463Y0094228D01*
X0052442Y0094220D01*
X0046133Y0094220D01*
X0046360Y0094768D01*
X0046360Y0095869D01*
X0045938Y0096887D01*
X0045159Y0097665D01*
X0044142Y0098087D01*
X0043040Y0098087D01*
X0042023Y0097665D01*
X0041244Y0096887D01*
X0040823Y0095869D01*
X0040823Y0094768D01*
X0041244Y0093750D01*
X0041281Y0093713D01*
X0039368Y0091800D01*
X0030330Y0091800D01*
X0029393Y0090863D01*
X0029393Y0080089D01*
X0030330Y0079152D01*
X0038124Y0079152D01*
X0038124Y0072372D01*
X0038489Y0071490D01*
X0041688Y0068291D01*
X0041688Y0066137D01*
X0041640Y0066088D01*
X0041640Y0058857D01*
X0042577Y0057919D01*
X0049183Y0057919D01*
X0049183Y0057410D01*
X0048413Y0057729D01*
X0029326Y0057729D01*
X0029326Y0059087D01*
X0028389Y0060025D01*
X0021946Y0060025D01*
X0021427Y0059506D01*
X0020909Y0060025D01*
X0014465Y0060025D01*
X0013528Y0059087D01*
X0013528Y0051463D01*
X0014465Y0050525D01*
X0018544Y0050525D01*
X0017956Y0050282D01*
X0016272Y0048598D01*
X0015597Y0047923D01*
X0015232Y0047041D01*
X0015232Y0045495D01*
X0014465Y0045495D01*
X0013528Y0044558D01*
X0013528Y0036933D01*
X0014465Y0035996D01*
X0020909Y0035996D01*
X0021427Y0036514D01*
X0021946Y0035996D01*
X0028389Y0035996D01*
X0029326Y0036933D01*
X0029326Y0044558D01*
X0028389Y0045495D01*
X0021946Y0045495D01*
X0021427Y0044977D01*
X0020909Y0045495D01*
X0020032Y0045495D01*
X0020032Y0045570D01*
X0020309Y0045847D01*
X0023126Y0045847D01*
X0024008Y0046212D01*
X0024683Y0046887D01*
X0027158Y0049362D01*
X0027523Y0050245D01*
X0027523Y0050525D01*
X0028389Y0050525D01*
X0029326Y0051463D01*
X0029326Y0052929D01*
X0046941Y0052929D01*
X0052069Y0047802D01*
X0052951Y0047436D01*
X0059144Y0047436D01*
X0059259Y0047321D01*
X0059259Y0043919D01*
X0042577Y0043919D01*
X0041640Y0042982D01*
X0041640Y0035751D01*
X0042577Y0034814D01*
X0044229Y0034814D01*
X0044229Y0033229D01*
X0041864Y0030864D01*
X0026917Y0030864D01*
X0026034Y0030498D01*
X0019643Y0024107D01*
X0019278Y0023225D01*
X0019278Y0018001D01*
X0018536Y0017694D01*
X0016979Y0016136D01*
X0016948Y0016063D01*
X0016918Y0016136D01*
X0015360Y0017694D01*
X0013325Y0018537D01*
X0011123Y0018537D01*
X0009087Y0017694D01*
X0007530Y0016136D01*
X0006687Y0014101D01*
X0006687Y0011899D01*
X0007530Y0009864D01*
X0009087Y0008306D01*
X0011123Y0007463D01*
X0013325Y0007463D01*
X0015360Y0008306D01*
X0016918Y0009864D01*
X0016948Y0009937D01*
X0016979Y0009864D01*
X0018536Y0008306D01*
X0020571Y0007463D01*
X0022774Y0007463D01*
X0024809Y0008306D01*
X0026367Y0009864D01*
X0026791Y0010887D01*
X0027215Y0009864D01*
X0028772Y0008306D01*
X0030808Y0007463D01*
X0033010Y0007463D01*
X0035045Y0008306D01*
X0036603Y0009864D01*
X0037027Y0010887D01*
X0037451Y0009864D01*
X0039009Y0008306D01*
X0041044Y0007463D01*
X0043247Y0007463D01*
X0045282Y0008306D01*
X0046839Y0009864D01*
X0047263Y0010887D01*
X0047687Y0009864D01*
X0049245Y0008306D01*
X0051280Y0007463D01*
X0053483Y0007463D01*
X0055518Y0008306D01*
X0057075Y0009864D01*
X0057206Y0010178D01*
X0057336Y0009864D01*
X0058894Y0008306D01*
X0060929Y0007463D01*
X0063131Y0007463D01*
X0065167Y0008306D01*
X0066724Y0009864D01*
X0067048Y0010646D01*
X0067372Y0009864D01*
X0068930Y0008306D01*
X0070965Y0007463D01*
X0073168Y0007463D01*
X0075203Y0008306D01*
X0076760Y0009864D01*
X0077085Y0010646D01*
X0077409Y0009864D01*
X0078966Y0008306D01*
X0081001Y0007463D01*
X0083204Y0007463D01*
X0085239Y0008306D01*
X0086797Y0009864D01*
X0087154Y0010727D01*
X0087512Y0009864D01*
X0089069Y0008306D01*
X0091105Y0007463D01*
X0093307Y0007463D01*
X0095342Y0008306D01*
X0096947Y0009978D02*
X0101800Y0009978D01*
X0101800Y0011576D02*
X0097609Y0011576D01*
X0097743Y0013175D02*
X0101800Y0013175D01*
X0101800Y0014773D02*
X0097465Y0014773D01*
X0096665Y0016372D02*
X0101800Y0016372D01*
X0101803Y0017970D02*
X0094687Y0017970D01*
X0094687Y0019569D02*
X0101806Y0019569D01*
X0101809Y0021167D02*
X0094638Y0021167D01*
X0093487Y0022766D02*
X0101812Y0022766D01*
X0101816Y0024364D02*
X0091888Y0024364D01*
X0090290Y0025963D02*
X0101819Y0025963D01*
X0101822Y0027561D02*
X0090157Y0027561D01*
X0090882Y0029160D02*
X0101825Y0029160D01*
X0101828Y0030758D02*
X0090882Y0030758D01*
X0090980Y0032116D02*
X0086649Y0032116D01*
X0090882Y0032357D02*
X0101831Y0032357D01*
X0101835Y0033956D02*
X0090882Y0033956D01*
X0090882Y0035554D02*
X0101838Y0035554D01*
X0101841Y0037153D02*
X0086916Y0037153D01*
X0088514Y0038751D02*
X0101844Y0038751D01*
X0101847Y0040350D02*
X0089182Y0040350D01*
X0090882Y0041948D02*
X0101850Y0041948D01*
X0101854Y0043547D02*
X0090882Y0043547D01*
X0090882Y0045145D02*
X0101857Y0045145D01*
X0101860Y0046744D02*
X0090882Y0046744D01*
X0090882Y0048342D02*
X0101863Y0048342D01*
X0101866Y0049941D02*
X0090189Y0049941D01*
X0089265Y0051539D02*
X0101869Y0051539D01*
X0101872Y0053138D02*
X0089265Y0053138D01*
X0090075Y0054736D02*
X0101876Y0054736D01*
X0101879Y0056335D02*
X0090882Y0056335D01*
X0090882Y0057933D02*
X0101882Y0057933D01*
X0101885Y0059532D02*
X0090882Y0059532D01*
X0090882Y0061130D02*
X0101888Y0061130D01*
X0101891Y0062729D02*
X0090882Y0062729D01*
X0089169Y0064327D02*
X0101895Y0064327D01*
X0101898Y0065926D02*
X0087951Y0065926D01*
X0086353Y0067524D02*
X0101901Y0067524D01*
X0101904Y0069123D02*
X0061479Y0069123D01*
X0061479Y0070721D02*
X0101907Y0070721D01*
X0101910Y0072320D02*
X0060969Y0072320D01*
X0060969Y0073918D02*
X0101913Y0073918D01*
X0101917Y0075517D02*
X0060969Y0075517D01*
X0060969Y0077115D02*
X0101920Y0077115D01*
X0101923Y0078714D02*
X0061136Y0078714D01*
X0061136Y0080312D02*
X0064038Y0080312D01*
X0064038Y0080089D02*
X0064976Y0079152D01*
X0074175Y0079152D01*
X0075112Y0080089D01*
X0075112Y0090863D01*
X0074175Y0091800D01*
X0064976Y0091800D01*
X0064038Y0090863D01*
X0064038Y0080089D01*
X0064038Y0081911D02*
X0061136Y0081911D01*
X0061136Y0083509D02*
X0064038Y0083509D01*
X0064038Y0085108D02*
X0061136Y0085108D01*
X0061136Y0086706D02*
X0064038Y0086706D01*
X0064038Y0088305D02*
X0061136Y0088305D01*
X0064038Y0089903D02*
X0057747Y0089903D01*
X0056537Y0091502D02*
X0064677Y0091502D01*
X0062482Y0092971D02*
X0063261Y0093750D01*
X0063683Y0094768D01*
X0063683Y0095869D01*
X0063261Y0096887D01*
X0062482Y0097665D01*
X0061465Y0098087D01*
X0060363Y0098087D01*
X0059346Y0097665D01*
X0058567Y0096887D01*
X0058146Y0095869D01*
X0058146Y0094768D01*
X0058567Y0093750D01*
X0059346Y0092971D01*
X0060363Y0092550D01*
X0061465Y0092550D01*
X0062482Y0092971D01*
X0062611Y0093100D02*
X0101951Y0093100D01*
X0101954Y0094699D02*
X0063654Y0094699D01*
X0063505Y0096297D02*
X0101958Y0096297D01*
X0101961Y0097896D02*
X0061926Y0097896D01*
X0059902Y0097896D02*
X0044603Y0097896D01*
X0046182Y0096297D02*
X0058323Y0096297D01*
X0058174Y0094699D02*
X0046331Y0094699D01*
X0042781Y0091820D02*
X0040524Y0089563D01*
X0040524Y0072849D01*
X0044088Y0069285D01*
X0044088Y0064334D01*
X0041640Y0064327D02*
X0002693Y0064327D01*
X0002690Y0062729D02*
X0041640Y0062729D01*
X0041640Y0061130D02*
X0002687Y0061130D01*
X0002684Y0059532D02*
X0013972Y0059532D01*
X0013528Y0057933D02*
X0002681Y0057933D01*
X0002678Y0056335D02*
X0013528Y0056335D01*
X0012967Y0055262D02*
X0017413Y0055262D01*
X0013528Y0054736D02*
X0002675Y0054736D01*
X0002673Y0053138D02*
X0013528Y0053138D01*
X0013528Y0051539D02*
X0002670Y0051539D01*
X0002667Y0049941D02*
X0017615Y0049941D01*
X0016016Y0048342D02*
X0002664Y0048342D01*
X0002661Y0046744D02*
X0015232Y0046744D01*
X0014115Y0045145D02*
X0002658Y0045145D01*
X0002655Y0043547D02*
X0013528Y0043547D01*
X0013528Y0041948D02*
X0002653Y0041948D01*
X0002650Y0040350D02*
X0013528Y0040350D01*
X0013528Y0038751D02*
X0002647Y0038751D01*
X0002644Y0037153D02*
X0013528Y0037153D01*
X0017632Y0042043D02*
X0017632Y0046564D01*
X0019315Y0048247D01*
X0022648Y0048247D01*
X0025123Y0050722D01*
X0025123Y0055012D01*
X0025227Y0055329D02*
X0047935Y0055329D01*
X0053428Y0049836D01*
X0060138Y0049836D01*
X0061659Y0048315D01*
X0061659Y0040996D01*
X0064048Y0040492D02*
X0064059Y0040518D01*
X0064059Y0048792D01*
X0063694Y0049674D01*
X0063590Y0049778D01*
X0071635Y0049778D01*
X0071635Y0034061D01*
X0072001Y0033179D01*
X0075084Y0030096D01*
X0075084Y0028287D01*
X0075964Y0027407D01*
X0075895Y0027407D01*
X0072419Y0030883D01*
X0071537Y0031249D01*
X0063657Y0031249D01*
X0061538Y0033368D01*
X0061538Y0034814D01*
X0063111Y0034814D01*
X0064048Y0035751D01*
X0064048Y0040492D01*
X0064048Y0040350D02*
X0071635Y0040350D01*
X0071635Y0041948D02*
X0064059Y0041948D01*
X0064059Y0043547D02*
X0071635Y0043547D01*
X0071635Y0045145D02*
X0064059Y0045145D01*
X0064059Y0046744D02*
X0071635Y0046744D01*
X0071635Y0048342D02*
X0064059Y0048342D01*
X0059259Y0046744D02*
X0024539Y0046744D01*
X0026138Y0048342D02*
X0051528Y0048342D01*
X0049930Y0049941D02*
X0027398Y0049941D01*
X0029326Y0051539D02*
X0048331Y0051539D01*
X0051583Y0055506D02*
X0054910Y0052178D01*
X0072775Y0052178D01*
X0074035Y0050918D01*
X0074035Y0034538D01*
X0077350Y0031224D01*
X0079376Y0032770D02*
X0079376Y0036928D01*
X0081317Y0038869D01*
X0085238Y0038869D01*
X0086782Y0040413D01*
X0086782Y0043265D01*
X0086865Y0043378D02*
X0086865Y0063618D01*
X0084050Y0066433D01*
X0063455Y0066433D01*
X0061792Y0064770D01*
X0059079Y0063595D02*
X0059079Y0070708D01*
X0058569Y0071219D01*
X0058569Y0080301D01*
X0056169Y0077112D02*
X0056169Y0070741D01*
X0056534Y0069859D01*
X0056679Y0069714D01*
X0056679Y0067025D01*
X0048944Y0067025D01*
X0048944Y0070020D01*
X0048951Y0070479D01*
X0048944Y0070496D01*
X0048944Y0070515D01*
X0048768Y0070940D01*
X0048598Y0071367D01*
X0048586Y0071380D01*
X0048579Y0071397D01*
X0048253Y0071722D01*
X0045264Y0074801D01*
X0045264Y0077112D01*
X0056169Y0077112D01*
X0056169Y0075517D02*
X0045264Y0075517D01*
X0045948Y0074250D02*
X0049083Y0071115D01*
X0049083Y0063954D01*
X0046544Y0063978D02*
X0046544Y0070037D01*
X0042864Y0073827D01*
X0042864Y0088679D01*
X0044009Y0089577D01*
X0051415Y0089577D01*
X0052326Y0088968D01*
X0052326Y0086751D01*
X0055455Y0086157D02*
X0055455Y0089166D01*
X0052897Y0091820D01*
X0042781Y0091820D01*
X0040668Y0093100D02*
X0002744Y0093100D01*
X0002747Y0094699D02*
X0040851Y0094699D01*
X0041000Y0096297D02*
X0002750Y0096297D01*
X0002753Y0097896D02*
X0042579Y0097896D01*
X0039530Y0100805D02*
X0040467Y0101742D01*
X0040467Y0112517D01*
X0039530Y0113454D01*
X0030330Y0113454D01*
X0029393Y0112517D01*
X0029393Y0101742D01*
X0030330Y0100805D01*
X0039530Y0100805D01*
X0039817Y0101093D02*
X0064688Y0101093D01*
X0064976Y0100805D02*
X0074175Y0100805D01*
X0075112Y0101742D01*
X0075112Y0112517D01*
X0074175Y0113454D01*
X0064976Y0113454D01*
X0064038Y0112517D01*
X0064038Y0101742D01*
X0064976Y0100805D01*
X0064038Y0102691D02*
X0040467Y0102691D01*
X0040467Y0104290D02*
X0064038Y0104290D01*
X0064038Y0105889D02*
X0040467Y0105889D01*
X0040467Y0107487D02*
X0064038Y0107487D01*
X0064038Y0109086D02*
X0040467Y0109086D01*
X0040467Y0110684D02*
X0064038Y0110684D01*
X0064038Y0112283D02*
X0040467Y0112283D01*
X0029393Y0112283D02*
X0002778Y0112283D01*
X0002781Y0113881D02*
X0101992Y0113881D01*
X0101989Y0112283D02*
X0075112Y0112283D01*
X0075112Y0110684D02*
X0101986Y0110684D01*
X0101983Y0109086D02*
X0075112Y0109086D01*
X0075112Y0107487D02*
X0101980Y0107487D01*
X0101977Y0105889D02*
X0075112Y0105889D01*
X0075112Y0104290D02*
X0101973Y0104290D01*
X0101970Y0102691D02*
X0075112Y0102691D01*
X0074463Y0101093D02*
X0101967Y0101093D01*
X0101964Y0099494D02*
X0002755Y0099494D01*
X0002758Y0101093D02*
X0030042Y0101093D01*
X0029393Y0102691D02*
X0002761Y0102691D01*
X0002764Y0104290D02*
X0029393Y0104290D01*
X0029393Y0105889D02*
X0002767Y0105889D01*
X0002770Y0107487D02*
X0029393Y0107487D01*
X0029393Y0109086D02*
X0002773Y0109086D01*
X0002775Y0110684D02*
X0029393Y0110684D01*
X0030032Y0091502D02*
X0002741Y0091502D01*
X0002738Y0089903D02*
X0029393Y0089903D01*
X0029393Y0088305D02*
X0002735Y0088305D01*
X0002733Y0086706D02*
X0029393Y0086706D01*
X0029393Y0085108D02*
X0002730Y0085108D01*
X0002727Y0083509D02*
X0029393Y0083509D01*
X0029393Y0081911D02*
X0002724Y0081911D01*
X0002721Y0080312D02*
X0029393Y0080312D01*
X0038124Y0078714D02*
X0002718Y0078714D01*
X0002715Y0077115D02*
X0038124Y0077115D01*
X0038124Y0075517D02*
X0002713Y0075517D01*
X0002710Y0073918D02*
X0038124Y0073918D01*
X0038146Y0072320D02*
X0002707Y0072320D01*
X0002704Y0070721D02*
X0039258Y0070721D01*
X0040857Y0069123D02*
X0002701Y0069123D01*
X0002698Y0067524D02*
X0041688Y0067524D01*
X0041640Y0065926D02*
X0002695Y0065926D01*
X0021402Y0059532D02*
X0021453Y0059532D01*
X0028882Y0059532D02*
X0041640Y0059532D01*
X0042563Y0057933D02*
X0029326Y0057933D01*
X0028739Y0045145D02*
X0059259Y0045145D01*
X0064048Y0038751D02*
X0071635Y0038751D01*
X0071635Y0037153D02*
X0064048Y0037153D01*
X0063851Y0035554D02*
X0071635Y0035554D01*
X0071679Y0033956D02*
X0061538Y0033956D01*
X0062549Y0032357D02*
X0072823Y0032357D01*
X0072544Y0030758D02*
X0074421Y0030758D01*
X0074142Y0029160D02*
X0075084Y0029160D01*
X0075741Y0027561D02*
X0075809Y0027561D01*
X0074901Y0025007D02*
X0087852Y0025007D01*
X0092287Y0020571D01*
X0092287Y0013324D01*
X0087465Y0009978D02*
X0086844Y0009978D01*
X0085313Y0008379D02*
X0088996Y0008379D01*
X0082188Y0013086D02*
X0082188Y0019898D01*
X0080050Y0022037D01*
X0073792Y0022037D01*
X0069435Y0026393D01*
X0061475Y0026393D01*
X0056643Y0031225D01*
X0056643Y0037918D01*
X0059138Y0037839D02*
X0059138Y0032373D01*
X0062663Y0028849D01*
X0071059Y0028849D01*
X0074901Y0025007D01*
X0072097Y0019016D02*
X0072097Y0013001D01*
X0067048Y0015354D02*
X0066724Y0016136D01*
X0065167Y0017694D01*
X0063131Y0018537D01*
X0060929Y0018537D01*
X0058894Y0017694D01*
X0057336Y0016136D01*
X0057206Y0015822D01*
X0057075Y0016136D01*
X0055518Y0017694D01*
X0053483Y0018537D01*
X0051280Y0018537D01*
X0049245Y0017694D01*
X0047687Y0016136D01*
X0047263Y0015113D01*
X0046839Y0016136D01*
X0045282Y0017694D01*
X0044615Y0017970D01*
X0044615Y0019662D01*
X0052807Y0027999D01*
X0058386Y0022420D01*
X0059061Y0021745D01*
X0059944Y0021379D01*
X0066340Y0021379D01*
X0069697Y0018022D01*
X0069697Y0018012D01*
X0068930Y0017694D01*
X0067372Y0016136D01*
X0067048Y0015354D01*
X0066489Y0016372D02*
X0067608Y0016372D01*
X0069597Y0017970D02*
X0064499Y0017970D01*
X0062966Y0017697D02*
X0061887Y0014159D01*
X0061844Y0014375D02*
X0060593Y0017826D01*
X0059561Y0017970D02*
X0054851Y0017970D01*
X0056840Y0016372D02*
X0057572Y0016372D01*
X0061972Y0014892D02*
X0061992Y0017938D01*
X0066552Y0021167D02*
X0046094Y0021167D01*
X0047665Y0022766D02*
X0058040Y0022766D01*
X0056442Y0024364D02*
X0049236Y0024364D01*
X0050807Y0025963D02*
X0054843Y0025963D01*
X0053245Y0027561D02*
X0052377Y0027561D01*
X0051621Y0030215D02*
X0042215Y0020644D01*
X0042215Y0013190D01*
X0046604Y0016372D02*
X0047923Y0016372D01*
X0049912Y0017970D02*
X0044615Y0017970D01*
X0044615Y0019569D02*
X0068150Y0019569D01*
X0072097Y0019016D02*
X0067334Y0023779D01*
X0060421Y0023779D01*
X0054097Y0030103D01*
X0054097Y0037695D01*
X0051621Y0037790D02*
X0051621Y0030215D01*
X0049170Y0031169D02*
X0043923Y0026002D01*
X0035076Y0025990D01*
X0031903Y0022817D01*
X0031903Y0012892D01*
X0027168Y0009978D02*
X0026414Y0009978D01*
X0024883Y0008379D02*
X0028699Y0008379D01*
X0035119Y0008379D02*
X0038935Y0008379D01*
X0037404Y0009978D02*
X0036650Y0009978D01*
X0045355Y0008379D02*
X0049172Y0008379D01*
X0047640Y0009978D02*
X0046887Y0009978D01*
X0055591Y0008379D02*
X0058820Y0008379D01*
X0057289Y0009978D02*
X0057123Y0009978D01*
X0065240Y0008379D02*
X0068857Y0008379D01*
X0067325Y0009978D02*
X0066771Y0009978D01*
X0075276Y0008379D02*
X0078893Y0008379D01*
X0077361Y0009978D02*
X0076808Y0009978D01*
X0049170Y0031169D02*
X0049170Y0037933D01*
X0046629Y0037569D02*
X0046629Y0032235D01*
X0042858Y0028464D01*
X0027394Y0028464D01*
X0021678Y0022747D01*
X0021678Y0012905D01*
X0017214Y0016372D02*
X0016683Y0016372D01*
X0014693Y0017970D02*
X0019203Y0017970D01*
X0019278Y0019569D02*
X0002613Y0019569D01*
X0002610Y0017970D02*
X0009755Y0017970D01*
X0007765Y0016372D02*
X0002607Y0016372D01*
X0002604Y0014773D02*
X0006965Y0014773D01*
X0006687Y0013175D02*
X0002601Y0013175D01*
X0002598Y0011576D02*
X0006820Y0011576D01*
X0007483Y0009978D02*
X0002596Y0009978D01*
X0002593Y0008379D02*
X0009014Y0008379D01*
X0012331Y0012848D02*
X0012331Y0021640D01*
X0019278Y0021167D02*
X0002616Y0021167D01*
X0002618Y0022766D02*
X0019278Y0022766D01*
X0019901Y0024364D02*
X0002621Y0024364D01*
X0002624Y0025963D02*
X0021499Y0025963D01*
X0023098Y0027561D02*
X0002627Y0027561D01*
X0002630Y0029160D02*
X0024696Y0029160D01*
X0026663Y0030758D02*
X0002633Y0030758D01*
X0002636Y0032357D02*
X0043357Y0032357D01*
X0044229Y0033956D02*
X0002638Y0033956D01*
X0002641Y0035554D02*
X0041836Y0035554D01*
X0041640Y0037153D02*
X0029326Y0037153D01*
X0029326Y0038751D02*
X0041640Y0038751D01*
X0041640Y0040350D02*
X0029326Y0040350D01*
X0029326Y0041948D02*
X0041640Y0041948D01*
X0044121Y0041495D02*
X0044121Y0044206D01*
X0042204Y0043547D02*
X0029326Y0043547D01*
X0021596Y0045145D02*
X0021259Y0045145D01*
X0048944Y0067524D02*
X0056679Y0067524D01*
X0056611Y0068856D02*
X0050773Y0074694D01*
X0046969Y0074694D01*
X0045948Y0074250D02*
X0045948Y0080024D01*
X0046121Y0073918D02*
X0056169Y0073918D01*
X0056169Y0072320D02*
X0047673Y0072320D01*
X0048858Y0070721D02*
X0056177Y0070721D01*
X0056679Y0069123D02*
X0048944Y0069123D01*
X0056611Y0068856D02*
X0056611Y0064711D01*
X0054100Y0060863D02*
X0054100Y0056491D01*
X0055669Y0054922D01*
X0075494Y0054922D01*
X0077443Y0056871D01*
X0072200Y0059356D02*
X0064048Y0059356D01*
X0064048Y0063632D01*
X0064449Y0064033D01*
X0072225Y0064033D01*
X0072200Y0064008D01*
X0072200Y0059356D01*
X0072200Y0059532D02*
X0064048Y0059532D01*
X0064048Y0061130D02*
X0072200Y0061130D01*
X0072200Y0062729D02*
X0064048Y0062729D01*
X0051583Y0060731D02*
X0051583Y0055506D01*
X0075112Y0080312D02*
X0101926Y0080312D01*
X0101929Y0081911D02*
X0075112Y0081911D01*
X0075112Y0083509D02*
X0101932Y0083509D01*
X0101936Y0085108D02*
X0075112Y0085108D01*
X0075112Y0086706D02*
X0101939Y0086706D01*
X0101942Y0088305D02*
X0075112Y0088305D01*
X0075112Y0089903D02*
X0101945Y0089903D01*
X0101948Y0091502D02*
X0074474Y0091502D01*
X0059217Y0093100D02*
X0054996Y0093100D01*
X0101996Y0115480D02*
X0002784Y0115480D01*
X0002787Y0117078D02*
X0101999Y0117078D01*
X0102002Y0118677D02*
X0002790Y0118677D01*
X0002793Y0120275D02*
X0102005Y0120275D01*
X0018463Y0008379D02*
X0015434Y0008379D01*
D19*
X0052370Y0012950D03*
X0056902Y0020578D03*
X0067190Y0035181D03*
X0068041Y0062014D03*
X0071233Y0074911D03*
X0046972Y0074698D03*
X0021164Y0068494D03*
X0030184Y0043938D03*
X0024986Y0040704D03*
X0052509Y0103563D03*
D20*
X0075589Y0064285D02*
X0082244Y0064285D01*
X0082957Y0063572D01*
X0082957Y0049646D01*
X0081293Y0047982D01*
X0073212Y0057156D02*
X0074400Y0058344D01*
X0074400Y0063097D01*
X0075589Y0064285D01*
X0073212Y0057156D02*
X0057190Y0057156D01*
X0056525Y0057821D01*
X0056525Y0061433D01*
M02*
