G75*
%MOIN*%
%OFA0B0*%
%FSLAX25Y25*%
%IPPOS*%
%LPD*%
%AMOC8*
5,1,8,0,0,1.08239X$1,22.5*
%
%ADD10C,0.00400*%
%ADD11C,0.00000*%
%ADD12C,0.03569*%
%ADD13C,0.01600*%
%ADD14C,0.02978*%
D10*
X0009764Y0006829D02*
X0094741Y0006829D01*
X0098074Y0010164D01*
X0098074Y0070790D01*
X0092751Y0076113D01*
X0080307Y0076113D01*
X0077586Y0078834D01*
X0077586Y0109504D01*
X0069708Y0117382D01*
X0034797Y0117382D01*
X0026920Y0109502D01*
X0026920Y0078832D01*
X0024198Y0076111D01*
X0011754Y0076111D01*
X0006431Y0070788D01*
X0006431Y0010162D01*
X0009764Y0006829D01*
D11*
X0041622Y0095318D02*
X0041624Y0095406D01*
X0041630Y0095494D01*
X0041640Y0095582D01*
X0041654Y0095670D01*
X0041671Y0095756D01*
X0041693Y0095842D01*
X0041718Y0095926D01*
X0041748Y0096010D01*
X0041780Y0096092D01*
X0041817Y0096172D01*
X0041857Y0096251D01*
X0041901Y0096328D01*
X0041948Y0096403D01*
X0041998Y0096475D01*
X0042052Y0096546D01*
X0042108Y0096613D01*
X0042168Y0096679D01*
X0042230Y0096741D01*
X0042296Y0096801D01*
X0042363Y0096857D01*
X0042434Y0096911D01*
X0042506Y0096961D01*
X0042581Y0097008D01*
X0042658Y0097052D01*
X0042737Y0097092D01*
X0042817Y0097129D01*
X0042899Y0097161D01*
X0042983Y0097191D01*
X0043067Y0097216D01*
X0043153Y0097238D01*
X0043239Y0097255D01*
X0043327Y0097269D01*
X0043415Y0097279D01*
X0043503Y0097285D01*
X0043591Y0097287D01*
X0043679Y0097285D01*
X0043767Y0097279D01*
X0043855Y0097269D01*
X0043943Y0097255D01*
X0044029Y0097238D01*
X0044115Y0097216D01*
X0044199Y0097191D01*
X0044283Y0097161D01*
X0044365Y0097129D01*
X0044445Y0097092D01*
X0044524Y0097052D01*
X0044601Y0097008D01*
X0044676Y0096961D01*
X0044748Y0096911D01*
X0044819Y0096857D01*
X0044886Y0096801D01*
X0044952Y0096741D01*
X0045014Y0096679D01*
X0045074Y0096613D01*
X0045130Y0096546D01*
X0045184Y0096475D01*
X0045234Y0096403D01*
X0045281Y0096328D01*
X0045325Y0096251D01*
X0045365Y0096172D01*
X0045402Y0096092D01*
X0045434Y0096010D01*
X0045464Y0095926D01*
X0045489Y0095842D01*
X0045511Y0095756D01*
X0045528Y0095670D01*
X0045542Y0095582D01*
X0045552Y0095494D01*
X0045558Y0095406D01*
X0045560Y0095318D01*
X0045558Y0095230D01*
X0045552Y0095142D01*
X0045542Y0095054D01*
X0045528Y0094966D01*
X0045511Y0094880D01*
X0045489Y0094794D01*
X0045464Y0094710D01*
X0045434Y0094626D01*
X0045402Y0094544D01*
X0045365Y0094464D01*
X0045325Y0094385D01*
X0045281Y0094308D01*
X0045234Y0094233D01*
X0045184Y0094161D01*
X0045130Y0094090D01*
X0045074Y0094023D01*
X0045014Y0093957D01*
X0044952Y0093895D01*
X0044886Y0093835D01*
X0044819Y0093779D01*
X0044748Y0093725D01*
X0044676Y0093675D01*
X0044601Y0093628D01*
X0044524Y0093584D01*
X0044445Y0093544D01*
X0044365Y0093507D01*
X0044283Y0093475D01*
X0044199Y0093445D01*
X0044115Y0093420D01*
X0044029Y0093398D01*
X0043943Y0093381D01*
X0043855Y0093367D01*
X0043767Y0093357D01*
X0043679Y0093351D01*
X0043591Y0093349D01*
X0043503Y0093351D01*
X0043415Y0093357D01*
X0043327Y0093367D01*
X0043239Y0093381D01*
X0043153Y0093398D01*
X0043067Y0093420D01*
X0042983Y0093445D01*
X0042899Y0093475D01*
X0042817Y0093507D01*
X0042737Y0093544D01*
X0042658Y0093584D01*
X0042581Y0093628D01*
X0042506Y0093675D01*
X0042434Y0093725D01*
X0042363Y0093779D01*
X0042296Y0093835D01*
X0042230Y0093895D01*
X0042168Y0093957D01*
X0042108Y0094023D01*
X0042052Y0094090D01*
X0041998Y0094161D01*
X0041948Y0094233D01*
X0041901Y0094308D01*
X0041857Y0094385D01*
X0041817Y0094464D01*
X0041780Y0094544D01*
X0041748Y0094626D01*
X0041718Y0094710D01*
X0041693Y0094794D01*
X0041671Y0094880D01*
X0041654Y0094966D01*
X0041640Y0095054D01*
X0041630Y0095142D01*
X0041624Y0095230D01*
X0041622Y0095318D01*
X0058945Y0095318D02*
X0058947Y0095406D01*
X0058953Y0095494D01*
X0058963Y0095582D01*
X0058977Y0095670D01*
X0058994Y0095756D01*
X0059016Y0095842D01*
X0059041Y0095926D01*
X0059071Y0096010D01*
X0059103Y0096092D01*
X0059140Y0096172D01*
X0059180Y0096251D01*
X0059224Y0096328D01*
X0059271Y0096403D01*
X0059321Y0096475D01*
X0059375Y0096546D01*
X0059431Y0096613D01*
X0059491Y0096679D01*
X0059553Y0096741D01*
X0059619Y0096801D01*
X0059686Y0096857D01*
X0059757Y0096911D01*
X0059829Y0096961D01*
X0059904Y0097008D01*
X0059981Y0097052D01*
X0060060Y0097092D01*
X0060140Y0097129D01*
X0060222Y0097161D01*
X0060306Y0097191D01*
X0060390Y0097216D01*
X0060476Y0097238D01*
X0060562Y0097255D01*
X0060650Y0097269D01*
X0060738Y0097279D01*
X0060826Y0097285D01*
X0060914Y0097287D01*
X0061002Y0097285D01*
X0061090Y0097279D01*
X0061178Y0097269D01*
X0061266Y0097255D01*
X0061352Y0097238D01*
X0061438Y0097216D01*
X0061522Y0097191D01*
X0061606Y0097161D01*
X0061688Y0097129D01*
X0061768Y0097092D01*
X0061847Y0097052D01*
X0061924Y0097008D01*
X0061999Y0096961D01*
X0062071Y0096911D01*
X0062142Y0096857D01*
X0062209Y0096801D01*
X0062275Y0096741D01*
X0062337Y0096679D01*
X0062397Y0096613D01*
X0062453Y0096546D01*
X0062507Y0096475D01*
X0062557Y0096403D01*
X0062604Y0096328D01*
X0062648Y0096251D01*
X0062688Y0096172D01*
X0062725Y0096092D01*
X0062757Y0096010D01*
X0062787Y0095926D01*
X0062812Y0095842D01*
X0062834Y0095756D01*
X0062851Y0095670D01*
X0062865Y0095582D01*
X0062875Y0095494D01*
X0062881Y0095406D01*
X0062883Y0095318D01*
X0062881Y0095230D01*
X0062875Y0095142D01*
X0062865Y0095054D01*
X0062851Y0094966D01*
X0062834Y0094880D01*
X0062812Y0094794D01*
X0062787Y0094710D01*
X0062757Y0094626D01*
X0062725Y0094544D01*
X0062688Y0094464D01*
X0062648Y0094385D01*
X0062604Y0094308D01*
X0062557Y0094233D01*
X0062507Y0094161D01*
X0062453Y0094090D01*
X0062397Y0094023D01*
X0062337Y0093957D01*
X0062275Y0093895D01*
X0062209Y0093835D01*
X0062142Y0093779D01*
X0062071Y0093725D01*
X0061999Y0093675D01*
X0061924Y0093628D01*
X0061847Y0093584D01*
X0061768Y0093544D01*
X0061688Y0093507D01*
X0061606Y0093475D01*
X0061522Y0093445D01*
X0061438Y0093420D01*
X0061352Y0093398D01*
X0061266Y0093381D01*
X0061178Y0093367D01*
X0061090Y0093357D01*
X0061002Y0093351D01*
X0060914Y0093349D01*
X0060826Y0093351D01*
X0060738Y0093357D01*
X0060650Y0093367D01*
X0060562Y0093381D01*
X0060476Y0093398D01*
X0060390Y0093420D01*
X0060306Y0093445D01*
X0060222Y0093475D01*
X0060140Y0093507D01*
X0060060Y0093544D01*
X0059981Y0093584D01*
X0059904Y0093628D01*
X0059829Y0093675D01*
X0059757Y0093725D01*
X0059686Y0093779D01*
X0059619Y0093835D01*
X0059553Y0093895D01*
X0059491Y0093957D01*
X0059431Y0094023D01*
X0059375Y0094090D01*
X0059321Y0094161D01*
X0059271Y0094233D01*
X0059224Y0094308D01*
X0059180Y0094385D01*
X0059140Y0094464D01*
X0059103Y0094544D01*
X0059071Y0094626D01*
X0059041Y0094710D01*
X0059016Y0094794D01*
X0058994Y0094880D01*
X0058977Y0094966D01*
X0058963Y0095054D01*
X0058953Y0095142D01*
X0058947Y0095230D01*
X0058945Y0095318D01*
D12*
X0061792Y0012826D03*
D13*
X0001800Y0006208D02*
X0002007Y0122179D01*
X0101220Y0122179D01*
X0101013Y0006208D01*
X0001800Y0006208D01*
X0001801Y0006781D02*
X0101014Y0006781D01*
X0101016Y0008379D02*
X0001804Y0008379D01*
X0001807Y0009978D02*
X0051473Y0009978D01*
X0051755Y0009861D02*
X0050620Y0010331D01*
X0049751Y0011200D01*
X0049281Y0012336D01*
X0049281Y0013564D01*
X0049751Y0014700D01*
X0050100Y0015049D01*
X0050100Y0022303D01*
X0046251Y0026152D01*
X0029734Y0026152D01*
X0028851Y0026517D01*
X0028176Y0027192D01*
X0022921Y0032448D01*
X0022556Y0033330D01*
X0022556Y0034285D01*
X0022556Y0038766D01*
X0022367Y0038955D01*
X0021897Y0040090D01*
X0021897Y0041319D01*
X0022367Y0042454D01*
X0023236Y0043323D01*
X0024371Y0043793D01*
X0025600Y0043793D01*
X0026736Y0043323D01*
X0027605Y0042454D01*
X0028075Y0041319D01*
X0028075Y0040090D01*
X0027605Y0038955D01*
X0027356Y0038706D01*
X0027356Y0034801D01*
X0031205Y0030952D01*
X0047722Y0030952D01*
X0048605Y0030587D01*
X0053859Y0025332D01*
X0054534Y0024657D01*
X0054900Y0023775D01*
X0054900Y0014788D01*
X0054988Y0014700D01*
X0055459Y0013564D01*
X0055459Y0012336D01*
X0054988Y0011200D01*
X0054119Y0010331D01*
X0052984Y0009861D01*
X0051755Y0009861D01*
X0053266Y0009978D02*
X0059854Y0009978D01*
X0059875Y0009957D02*
X0061119Y0009442D01*
X0062465Y0009442D01*
X0063709Y0009957D01*
X0064661Y0010909D01*
X0065177Y0012153D01*
X0065177Y0013499D01*
X0064661Y0014743D01*
X0063709Y0015695D01*
X0062465Y0016210D01*
X0061119Y0016210D01*
X0059875Y0015695D01*
X0058923Y0014743D01*
X0058408Y0013499D01*
X0058408Y0012153D01*
X0058923Y0010909D01*
X0059875Y0009957D01*
X0058647Y0011576D02*
X0055144Y0011576D01*
X0055459Y0013175D02*
X0058408Y0013175D01*
X0058954Y0014773D02*
X0054915Y0014773D01*
X0054900Y0016372D02*
X0101031Y0016372D01*
X0101034Y0017970D02*
X0054900Y0017970D01*
X0054900Y0019569D02*
X0101036Y0019569D01*
X0101039Y0021167D02*
X0054900Y0021167D01*
X0054900Y0022766D02*
X0101042Y0022766D01*
X0101045Y0024364D02*
X0054655Y0024364D01*
X0053228Y0025963D02*
X0101048Y0025963D01*
X0101051Y0027561D02*
X0051630Y0027561D01*
X0050031Y0029160D02*
X0101054Y0029160D01*
X0101056Y0030758D02*
X0048190Y0030758D01*
X0047245Y0028552D02*
X0052500Y0023297D01*
X0052500Y0012784D01*
X0049595Y0011576D02*
X0001810Y0011576D01*
X0001812Y0013175D02*
X0049281Y0013175D01*
X0049824Y0014773D02*
X0001815Y0014773D01*
X0001818Y0016372D02*
X0050100Y0016372D01*
X0050100Y0017970D02*
X0001821Y0017970D01*
X0001824Y0019569D02*
X0050100Y0019569D01*
X0050100Y0021167D02*
X0001827Y0021167D01*
X0001830Y0022766D02*
X0049637Y0022766D01*
X0048039Y0024364D02*
X0001832Y0024364D01*
X0001835Y0025963D02*
X0046440Y0025963D01*
X0047245Y0028552D02*
X0030211Y0028552D01*
X0024956Y0033807D01*
X0024956Y0040768D01*
X0022158Y0041948D02*
X0001864Y0041948D01*
X0001861Y0040350D02*
X0021897Y0040350D01*
X0022556Y0038751D02*
X0001858Y0038751D01*
X0001855Y0037153D02*
X0022556Y0037153D01*
X0022556Y0035554D02*
X0001852Y0035554D01*
X0001850Y0033956D02*
X0022556Y0033956D01*
X0023012Y0032357D02*
X0001847Y0032357D01*
X0001844Y0030758D02*
X0024610Y0030758D01*
X0026209Y0029160D02*
X0001841Y0029160D01*
X0001838Y0027561D02*
X0027807Y0027561D01*
X0029800Y0032357D02*
X0101059Y0032357D01*
X0101062Y0033956D02*
X0028201Y0033956D01*
X0027356Y0035554D02*
X0101065Y0035554D01*
X0101068Y0037153D02*
X0027356Y0037153D01*
X0027401Y0038751D02*
X0101071Y0038751D01*
X0101074Y0040350D02*
X0028075Y0040350D01*
X0027814Y0041948D02*
X0101076Y0041948D01*
X0101079Y0043547D02*
X0026196Y0043547D01*
X0023776Y0043547D02*
X0001867Y0043547D01*
X0001870Y0045145D02*
X0101082Y0045145D01*
X0101085Y0046744D02*
X0001872Y0046744D01*
X0001875Y0048342D02*
X0101088Y0048342D01*
X0101091Y0049941D02*
X0001878Y0049941D01*
X0001881Y0051539D02*
X0101094Y0051539D01*
X0101096Y0053138D02*
X0001884Y0053138D01*
X0001887Y0054736D02*
X0101099Y0054736D01*
X0101102Y0056335D02*
X0001890Y0056335D01*
X0001892Y0057933D02*
X0101105Y0057933D01*
X0101108Y0059532D02*
X0001895Y0059532D01*
X0001898Y0061130D02*
X0101111Y0061130D01*
X0101114Y0062729D02*
X0001901Y0062729D01*
X0001904Y0064327D02*
X0101116Y0064327D01*
X0101119Y0065926D02*
X0001907Y0065926D01*
X0001910Y0067524D02*
X0101122Y0067524D01*
X0101125Y0069123D02*
X0001912Y0069123D01*
X0001915Y0070721D02*
X0101128Y0070721D01*
X0101131Y0072320D02*
X0001918Y0072320D01*
X0001921Y0073918D02*
X0101134Y0073918D01*
X0101136Y0075517D02*
X0001924Y0075517D01*
X0001927Y0077115D02*
X0101139Y0077115D01*
X0101142Y0078714D02*
X0001930Y0078714D01*
X0001932Y0080312D02*
X0101145Y0080312D01*
X0101148Y0081911D02*
X0001935Y0081911D01*
X0001938Y0083509D02*
X0101151Y0083509D01*
X0101154Y0085108D02*
X0001941Y0085108D01*
X0001944Y0086706D02*
X0101156Y0086706D01*
X0101159Y0088305D02*
X0001947Y0088305D01*
X0001950Y0089903D02*
X0101162Y0089903D01*
X0101165Y0091502D02*
X0001952Y0091502D01*
X0001955Y0093100D02*
X0041894Y0093100D01*
X0042023Y0092971D02*
X0043040Y0092550D01*
X0044142Y0092550D01*
X0045159Y0092971D01*
X0045938Y0093750D01*
X0046360Y0094768D01*
X0046360Y0095869D01*
X0045938Y0096887D01*
X0045159Y0097665D01*
X0044142Y0098087D01*
X0043040Y0098087D01*
X0042023Y0097665D01*
X0041244Y0096887D01*
X0040823Y0095869D01*
X0040823Y0094768D01*
X0041244Y0093750D01*
X0042023Y0092971D01*
X0040851Y0094699D02*
X0001958Y0094699D01*
X0001961Y0096297D02*
X0041000Y0096297D01*
X0042579Y0097896D02*
X0001964Y0097896D01*
X0001967Y0099494D02*
X0101179Y0099494D01*
X0101182Y0101093D02*
X0001970Y0101093D01*
X0001972Y0102691D02*
X0101185Y0102691D01*
X0101188Y0104290D02*
X0001975Y0104290D01*
X0001978Y0105889D02*
X0101191Y0105889D01*
X0101194Y0107487D02*
X0001981Y0107487D01*
X0001984Y0109086D02*
X0101196Y0109086D01*
X0101199Y0110684D02*
X0001987Y0110684D01*
X0001989Y0112283D02*
X0101202Y0112283D01*
X0101205Y0113881D02*
X0001992Y0113881D01*
X0001995Y0115480D02*
X0101208Y0115480D01*
X0101211Y0117078D02*
X0001998Y0117078D01*
X0002001Y0118677D02*
X0101214Y0118677D01*
X0101216Y0120275D02*
X0002004Y0120275D01*
X0002007Y0121874D02*
X0101219Y0121874D01*
X0101176Y0097896D02*
X0061926Y0097896D01*
X0061465Y0098087D02*
X0060363Y0098087D01*
X0059346Y0097665D01*
X0058567Y0096887D01*
X0058146Y0095869D01*
X0058146Y0094768D01*
X0058567Y0093750D01*
X0059346Y0092971D01*
X0060363Y0092550D01*
X0061465Y0092550D01*
X0062482Y0092971D01*
X0063261Y0093750D01*
X0063683Y0094768D01*
X0063683Y0095869D01*
X0063261Y0096887D01*
X0062482Y0097665D01*
X0061465Y0098087D01*
X0059902Y0097896D02*
X0044603Y0097896D01*
X0046182Y0096297D02*
X0058323Y0096297D01*
X0058174Y0094699D02*
X0046331Y0094699D01*
X0045288Y0093100D02*
X0059217Y0093100D01*
X0062611Y0093100D02*
X0101168Y0093100D01*
X0101171Y0094699D02*
X0063654Y0094699D01*
X0063505Y0096297D02*
X0101174Y0096297D01*
X0101028Y0014773D02*
X0064631Y0014773D01*
X0065177Y0013175D02*
X0101025Y0013175D01*
X0101022Y0011576D02*
X0064938Y0011576D01*
X0063730Y0009978D02*
X0101019Y0009978D01*
D14*
X0067190Y0035181D03*
X0056902Y0020578D03*
X0052370Y0012950D03*
X0024986Y0040704D03*
X0030184Y0043938D03*
X0021164Y0068494D03*
X0046972Y0074698D03*
X0068041Y0062014D03*
X0071233Y0074911D03*
X0052509Y0103563D03*
M02*
